<svg width="346.47503662109375px" height="122px" xmlns="http://www.w3.org/2000/svg" viewBox="76.76248168945312 14 346.47503662109375 122" style="background: rgba(0, 0, 0, 0);" preserveAspectRatio="xMidYMid"><defs><filter id="editing-hole" x="-100%" y="-100%" width="300%" height="300%"><feFlood flood-color="#000" result="black"></feFlood><feMorphology operator="dilate" radius="2" in="SourceGraphic" result="erode"></feMorphology><feGaussianBlur in="erode" stdDeviation="4" result="blur"></feGaussianBlur><feOffset in="blur" dx="2" dy="2" result="offset"></feOffset><feComposite operator="atop" in="offset" in2="black" result="merge"></feComposite><feComposite operator="in" in="merge" in2="SourceGraphic" result="inner-shadow"></feComposite></filter></defs><g filter="url(#editing-hole)"><g transform="translate(130.1599841117859, 97.46500015258789)"><path d="M27.01-20.61L39.94-21.76L39.94-21.76Q35.33-11.65 35.33 0.06L35.33 0.06L35.33 0.06Q33.60 1.28 31.07 1.28L31.07 1.28L31.07 1.28Q28.54 1.28 26.94 0.10L26.94 0.10L26.94 0.10Q25.34-1.09 25.02-2.30L25.02-2.30L25.02-2.30Q23.42-0.64 20.83 0.32L20.83 0.32L20.83 0.32Q18.24 1.28 15.49 1.28L15.49 1.28L15.49 1.28Q12.74 1.28 10.34 0.38L10.34 0.38L10.34 0.38Q7.94-0.51 6.08-2.50L6.08-2.50L6.08-2.50Q1.98-6.85 1.98-15.10L1.98-15.10L1.98-15.10Q1.98-27.90 8.83-35.58L8.83-35.58L8.83-35.58Q15.87-43.52 28.35-43.52L28.35-43.52L28.35-43.52Q36.99-43.52 40.06-39.04L40.06-39.04L40.06-39.04Q41.02-37.63 41.02-35.94L41.02-35.94L41.02-35.94Q41.02-34.24 40.29-32.80L40.29-32.80L40.29-32.80Q39.55-31.36 38.40-30.21L38.40-30.21L38.40-30.21Q35.65-27.65 32.26-27.65L32.26-27.65L32.26-27.65Q30.91-27.65 29.63-28.10L29.63-28.10L29.63-28.10Q29.89-30.02 29.89-32.26L29.89-32.26L29.89-32.26Q29.89-34.50 29.73-35.52L29.73-35.52L29.73-35.52Q29.57-36.54 29.18-37.38L29.18-37.38L29.18-37.38Q28.35-39.10 26.53-39.10L26.53-39.10L26.53-39.10Q24.70-39.10 22.69-37.15L22.69-37.15L22.69-37.15Q20.67-35.20 19.07-32L19.07-32L19.07-32Q15.55-24.83 15.55-16.19L15.55-16.19L15.55-16.19Q15.55-12.22 17.09-9.41L17.09-9.41L17.09-9.41Q18.75-6.34 21.70-6.34L21.70-6.34L21.70-6.34Q22.72-6.34 23.65-6.85L23.65-6.85L23.65-6.85Q24.58-7.36 24.96-7.74L24.96-7.74L27.01-20.61ZM56.32 0L42.37 0L50.50-42.24L64.58-42.24L56.32 0ZM71.10-31.17L71.10-31.17L71.10-31.17Q68.93-32.83 68.93-36.38L68.93-36.38L68.93-36.38Q68.93-39.94 71.26-41.79L71.26-41.79L71.26-41.79Q73.60-43.65 77.63-43.65L77.63-43.65L77.63-43.65Q80.19-43.65 86.27-42.75L86.27-42.75L90.62-42.11L90.62-42.11Q92.80-41.86 95.07-41.86L95.07-41.86L95.07-41.86Q97.34-41.86 98.88-42.82L98.88-42.82L98.88-42.82Q101.18-40.77 101.18-37.82L101.18-37.82L101.18-37.82Q101.18-34.88 98.56-32.77L98.56-32.77L98.56-32.77Q95.87-30.53 92.42-30.53L92.42-30.53L92.42-30.53Q90.75-30.53 88.06-30.98L88.06-30.98L88.06-30.98Q84.93-21.12 84.93-14.27L84.93-14.27L84.93-14.27Q84.93-7.42 88.38-3.84L88.38-3.84L88.38-3.84Q86.78-0.96 84.42 0.16L84.42 0.16L84.42 0.16Q82.05 1.28 78.50 1.28L78.50 1.28L78.50 1.28Q74.94 1.28 72.74-0.67L72.74-0.67L72.74-0.67Q70.53-2.62 70.53-6.66L70.53-6.66L70.53-6.66Q70.53-11.33 73.09-19.01L73.09-19.01L73.09-19.01Q75.65-26.62 79.49-32.45L79.49-32.45L79.49-32.45Q77.63-32.64 75.71-32.64L75.71-32.64L75.71-32.64Q71.74-32.64 71.10-31.17ZM136.19-4.80L136.19-4.80L136.19-4.80Q136.19-9.28 137.98-18.24L137.98-18.24L128.51-18.24L124.99 0L111.62 0L119.74-42.24L133.25-42.24L129.54-23.36L139.01-23.36L142.53-42.24L156.03-42.24L156.03-42.24Q155.14-37.50 153.98-32.19L153.98-32.19L151.81-21.76L151.81-21.76Q149.38-9.60 149.38-4.29L149.38-4.29L149.38-4.29Q149.38-2.11 150.08-0.90L150.08-0.90L150.08-0.90Q146.88 1.28 143.14 1.28L143.14 1.28L143.14 1.28Q139.39 1.28 137.79-0.51L137.79-0.51L137.79-0.51Q136.19-2.30 136.19-4.80ZM158.78-9.47L158.78-9.47L158.78-9.47Q158.78-11.97 159.42-15.17L159.42-15.17L164.61-42.24L178.75-42.24L173.63-14.98L173.63-14.98Q173.06-11.97 173.06-9.76L173.06-9.76L173.06-9.76Q173.06-7.55 173.98-6.40L173.98-6.40L173.98-6.40Q174.91-5.25 176.64-5.25L176.64-5.25L176.64-5.25Q178.37-5.25 179.46-5.70L179.46-5.70L179.46-5.70Q180.54-6.14 181.44-7.23L181.44-7.23L181.44-7.23Q183.17-9.41 184.26-14.98L184.26-14.98L189.44-42.24L199.10-42.24L193.98-15.04L193.98-15.04Q192.19-5.95 187.26-2.30L187.26-2.30L187.26-2.30Q182.46 1.28 172.99 1.28L172.99 1.28L172.99 1.28Q165.89 1.28 162.11-1.79L162.11-1.79L162.11-1.79Q158.78-4.48 158.78-9.47ZM199.74-0.32L199.74-0.32L207.81-42.24L207.81-42.24Q215.36-42.88 220.22-42.88L220.22-42.88L220.22-42.88Q225.09-42.88 228.22-42.46L228.22-42.46L228.22-42.46Q231.36-42.05 233.47-40.96L233.47-40.96L233.47-40.96Q237.70-38.91 237.70-33.28L237.70-33.28L237.70-33.28Q237.70-30.02 234.88-27.26L234.88-27.26L234.88-27.26Q232.26-24.77 229.38-24.19L229.38-24.19L229.38-24.19Q232.45-23.68 234.62-21.38L234.62-21.38L234.62-21.38Q236.93-18.94 236.93-15.17L236.93-15.17L236.93-15.17Q236.93-7.87 231.49-3.62L231.49-3.62L231.49-3.62Q226.05 0.64 215.36 0.64L215.36 0.64L215.36 0.64Q208 0.64 199.74-0.32ZM217.15-20.61L213.95-4.03L213.95-4.03Q214.53-3.97 214.66-3.97L214.66-3.97L215.23-3.97L215.23-3.97Q220.48-3.97 222.72-7.42L222.72-7.42L222.72-7.42Q224.38-10.11 224.38-15.04L224.38-15.04L224.38-15.04Q224.38-17.66 222.69-19.07L222.69-19.07L222.69-19.07Q220.99-20.48 217.15-20.61L217.15-20.61ZM226.88-33.22L226.88-33.22L226.88-33.22Q226.88-38.53 221.76-38.53L221.76-38.53L221.18-38.53L221.18-38.53Q220.93-38.53 220.54-38.46L220.54-38.46L217.98-24.96L218.62-24.96L218.62-24.96Q226.88-25.15 226.88-33.22Z" fill="#ccc"></path></g></g><style>text {
  font-size: 64px;
  font-family: Arial Black;
  dominant-baseline: central;
  text-anchor: middle;
}</style></svg>