<svg width="505.0625366210937px" height="122px" xmlns="http://www.w3.org/2000/svg" viewBox="-2.5312683105468636 14 505.0625366210937 122" style="background: rgba(0, 0, 0, 0);" preserveAspectRatio="xMidYMid"><defs><filter id="editing-hole" x="-100%" y="-100%" width="300%" height="300%"><feFlood flood-color="#000" result="black"></feFlood><feMorphology operator="dilate" radius="2" in="SourceGraphic" result="erode"></feMorphology><feGaussianBlur in="erode" stdDeviation="4" result="blur"></feGaussianBlur><feOffset in="blur" dx="2" dy="2" result="offset"></feOffset><feComposite operator="atop" in="offset" in2="black" result="merge"></feComposite><feComposite operator="in" in="merge" in2="SourceGraphic" result="inner-shadow"></feComposite></filter></defs><g filter="url(#editing-hole)"><g transform="translate(72.30498227477074, 97.46500015258789)"><path d="M14.34 0L0.38 0L8.51-42.24L22.59-42.24L14.34 0ZM30.59 0L23.55 0L31.23-42.24L44.99-42.24L54.98-13.18L60.29-42.24L67.39-42.18L59.58 0L44.93 0L35.71-27.97L30.59 0ZM93.95-29.57L93.95-29.57L93.95-29.57Q94.91-31.49 94.91-33.28L94.91-33.28L94.91-33.28Q94.91-35.07 94.72-36.06L94.72-36.06L94.72-36.06Q94.53-37.06 94.08-37.82L94.08-37.82L94.08-37.82Q93.12-39.49 91.20-39.49L91.20-39.49L91.20-39.49Q88.83-39.49 86.91-37.76L86.91-37.76L86.91-37.76Q84.86-35.97 84.86-33.15L84.86-33.15L84.86-33.15Q84.86-31.36 86.11-29.98L86.11-29.98L86.11-29.98Q87.36-28.61 89.28-27.33L89.28-27.33L89.28-27.33Q91.20-26.05 93.38-24.77L93.38-24.77L93.38-24.77Q95.55-23.49 97.47-21.95L97.47-21.95L97.47-21.95Q101.89-18.43 101.89-13.70L101.89-13.70L101.89-13.70Q101.89-10.50 100.19-7.78L100.19-7.78L100.19-7.78Q98.50-5.06 95.68-3.07L95.68-3.07L95.68-3.07Q89.54 1.28 81.41 1.28L81.41 1.28L81.41 1.28Q74.82 1.28 71.42-0.86L71.42-0.86L71.42-0.86Q68.03-3.01 68.03-6.27L68.03-6.27L68.03-6.27Q68.03-12.10 72.58-13.57L72.58-13.57L72.58-13.57Q73.86-14.02 75.81-14.02L75.81-14.02L75.81-14.02Q77.76-14.02 80-13.18L80-13.18L80-13.18Q78.98-10.56 78.98-8.19L78.98-8.19L78.98-8.19Q78.98-3.07 82.62-3.07L82.62-3.07L82.62-3.07Q84.99-3.07 86.94-4.80L86.94-4.80L86.94-4.80Q88.90-6.53 88.90-8.48L88.90-8.48L88.90-8.48Q88.90-10.43 87.65-11.84L87.65-11.84L87.65-11.84Q86.40-13.25 84.54-14.37L84.54-14.37L84.54-14.37Q82.69-15.49 80.54-16.58L80.54-16.58L80.54-16.58Q78.40-17.66 76.54-19.20L76.54-19.20L76.54-19.20Q72.19-22.72 72.19-28.35L72.19-28.35L72.19-28.35Q72.19-32 73.98-34.85L73.98-34.85L73.98-34.85Q75.78-37.70 78.66-39.62L78.66-39.62L78.66-39.62Q84.42-43.52 91.49-43.52L91.49-43.52L91.49-43.52Q98.56-43.52 101.98-41.41L101.98-41.41L101.98-41.41Q105.41-39.30 105.41-35.71L105.41-35.71L105.41-35.71Q105.41-32.58 102.98-30.59L102.98-30.59L102.98-30.59Q100.86-28.93 98.30-28.93L98.30-28.93L98.30-28.93Q95.74-28.93 93.95-29.57ZM111.87-31.17L111.87-31.17L111.87-31.17Q109.70-32.83 109.70-36.38L109.70-36.38L109.70-36.38Q109.70-39.94 112.03-41.79L112.03-41.79L112.03-41.79Q114.37-43.65 118.40-43.65L118.40-43.65L118.40-43.65Q120.96-43.65 127.04-42.75L127.04-42.75L131.39-42.11L131.39-42.11Q133.57-41.86 135.84-41.86L135.84-41.86L135.84-41.86Q138.11-41.86 139.65-42.82L139.65-42.82L139.65-42.82Q141.95-40.77 141.95-37.82L141.95-37.82L141.95-37.82Q141.95-34.88 139.33-32.77L139.33-32.77L139.33-32.77Q136.64-30.53 133.18-30.53L133.18-30.53L133.18-30.53Q131.52-30.53 128.83-30.98L128.83-30.98L128.83-30.98Q125.70-21.12 125.70-14.27L125.70-14.27L125.70-14.27Q125.70-7.42 129.15-3.84L129.15-3.84L129.15-3.84Q127.55-0.96 125.18 0.16L125.18 0.16L125.18 0.16Q122.82 1.28 119.26 1.28L119.26 1.28L119.26 1.28Q115.71 1.28 113.50-0.67L113.50-0.67L113.50-0.67Q111.30-2.62 111.30-6.66L111.30-6.66L111.30-6.66Q111.30-11.33 113.86-19.01L113.86-19.01L113.86-19.01Q116.42-26.62 120.26-32.45L120.26-32.45L120.26-32.45Q118.40-32.64 116.48-32.64L116.48-32.64L116.48-32.64Q112.51-32.64 111.87-31.17ZM166.98 1.28L166.98 1.28L166.98 1.28Q158.78 1.28 158.02-10.37L158.02-10.37L147.01-10.37L147.01-10.37Q145.73-7.42 144.83-4.86L144.83-4.86L143.17 0L134.21 0L154.37-42.24L168.13-42.24L170.82-11.14L170.82-11.14Q171.46-4.42 174.02-2.43L174.02-2.43L174.02-2.43Q172.16 1.28 166.98 1.28ZM152.51-23.17L148.99-15.04L157.82-15.04L157.06-31.49L157.06-33.22L152.51-23.17ZM202.94-20.61L215.87-21.76L215.87-21.76Q211.26-11.65 211.26 0.06L211.26 0.06L211.26 0.06Q209.54 1.28 207.01 1.28L207.01 1.28L207.01 1.28Q204.48 1.28 202.88 0.10L202.88 0.10L202.88 0.10Q201.28-1.09 200.96-2.30L200.96-2.30L200.96-2.30Q199.36-0.64 196.77 0.32L196.77 0.32L196.77 0.32Q194.18 1.28 191.42 1.28L191.42 1.28L191.42 1.28Q188.67 1.28 186.27 0.38L186.27 0.38L186.27 0.38Q183.87-0.51 182.02-2.50L182.02-2.50L182.02-2.50Q177.92-6.85 177.92-15.10L177.92-15.10L177.92-15.10Q177.92-27.90 184.77-35.58L184.77-35.58L184.77-35.58Q191.81-43.52 204.29-43.52L204.29-43.52L204.29-43.52Q212.93-43.52 216.00-39.04L216.00-39.04L216.00-39.04Q216.96-37.63 216.96-35.94L216.96-35.94L216.96-35.94Q216.96-34.24 216.22-32.80L216.22-32.80L216.22-32.80Q215.49-31.36 214.34-30.21L214.34-30.21L214.34-30.21Q211.58-27.65 208.19-27.65L208.19-27.65L208.19-27.65Q206.85-27.65 205.57-28.10L205.57-28.10L205.57-28.10Q205.82-30.02 205.82-32.26L205.82-32.26L205.82-32.26Q205.82-34.50 205.66-35.52L205.66-35.52L205.66-35.52Q205.50-36.54 205.12-37.38L205.12-37.38L205.12-37.38Q204.29-39.10 202.46-39.10L202.46-39.10L202.46-39.10Q200.64-39.10 198.62-37.15L198.62-37.15L198.62-37.15Q196.61-35.20 195.01-32L195.01-32L195.01-32Q191.49-24.83 191.49-16.19L191.49-16.19L191.49-16.19Q191.49-12.22 193.02-9.41L193.02-9.41L193.02-9.41Q194.69-6.34 197.63-6.34L197.63-6.34L197.63-6.34Q198.66-6.34 199.58-6.85L199.58-6.85L199.58-6.85Q200.51-7.36 200.90-7.74L200.90-7.74L202.94-20.61ZM232.13 0L218.43 0L226.24-42.05L226.24-42.05Q232.58-42.75 241.82-42.75L241.82-42.75L241.82-42.75Q251.07-42.75 255.36-40.06L255.36-40.06L255.36-40.06Q259.65-37.38 259.65-31.97L259.65-31.97L259.65-31.97Q259.65-26.56 256.86-23.17L256.86-23.17L256.86-23.17Q254.08-19.78 249.28-18.69L249.28-18.69L249.28-18.69Q250.37-13.38 252.86-9.09L252.86-9.09L252.86-9.09Q255.17-5.06 257.86-3.78L257.86-3.78L257.86-3.78Q256.90-1.09 254.94 0.10L254.94 0.10L254.94 0.10Q252.99 1.28 250.21 1.28L250.21 1.28L250.21 1.28Q247.42 1.28 245.25-0.35L245.25-0.35L245.25-0.35Q243.07-1.98 241.34-4.99L241.34-4.99L241.34-4.99Q237.70-11.52 237.31-21.82L237.31-21.82L237.76-21.82L237.76-21.82Q242.50-21.95 244.86-24.42L244.86-24.42L244.86-24.42Q247.23-26.88 247.23-32.06L247.23-32.06L247.23-32.06Q247.23-38.53 241.79-38.78L241.79-38.78L240.38-38.78L240.38-38.78Q239.81-38.78 239.49-38.72L239.49-38.72L232.13 0ZM290.69 1.28L290.69 1.28L290.69 1.28Q282.50 1.28 281.73-10.37L281.73-10.37L270.72-10.37L270.72-10.37Q269.44-7.42 268.54-4.86L268.54-4.86L266.88 0L257.92 0L278.08-42.24L291.84-42.24L294.53-11.14L294.53-11.14Q295.17-4.42 297.73-2.43L297.73-2.43L297.73-2.43Q295.87 1.28 290.69 1.28ZM276.22-23.17L272.70-15.04L281.54-15.04L280.77-31.49L280.77-33.22L276.22-23.17ZM306.88 0L299.52 0L311.10-42.24L324.48-42.24L327.42-18.11L339.33-42.24L350.53-42.24L351.68-10.62L351.68-10.62Q351.94-4.35 355.01-2.43L355.01-2.43L355.01-2.43Q354.30-1.15 352.26 0.06L352.26 0.06L352.26 0.06Q350.21 1.28 347.49 1.28L347.49 1.28L347.49 1.28Q344.77 1.28 343.17 0.51L343.17 0.51L343.17 0.51Q341.57-0.26 340.67-1.54L340.67-1.54L340.67-1.54Q339.07-3.84 339.07-8.26L339.07-8.26L339.07-28.03L326.46 0L318.53 0L314.05-28.74L306.88 0Z" fill="#ccc"></path></g></g><style>text {
  font-size: 64px;
  font-family: Arial Black;
  dominant-baseline: central;
  text-anchor: middle;
}</style></svg>