<svg width="355.625px" height="122px" xmlns="http://www.w3.org/2000/svg" viewBox="72.1875 14 355.625 122" style="background: rgba(0, 0, 0, 0);" preserveAspectRatio="xMidYMid"><defs><filter id="editing-hole" x="-100%" y="-100%" width="300%" height="300%"><feFlood flood-color="#000" result="black"></feFlood><feMorphology operator="dilate" radius="2" in="SourceGraphic" result="erode"></feMorphology><feGaussianBlur in="erode" stdDeviation="4" result="blur"></feGaussianBlur><feOffset in="blur" dx="2" dy="2" result="offset"></feOffset><feComposite operator="atop" in="offset" in2="black" result="merge"></feComposite><feComposite operator="in" in="merge" in2="SourceGraphic" result="inner-shadow"></feComposite></filter></defs><g filter="url(#editing-hole)"><g transform="translate(126.57498353719711, 97.30500030517578)"><path d="M27.84-9.86L27.84-9.86L27.84-9.86Q29.06-8.32 29.06-5.34L29.06-5.34L29.06-5.34Q29.06-2.37 26.78-0.54L26.78-0.54L26.78-0.54Q24.51 1.28 20.54 1.28L20.54 1.28L20.54 1.28Q18.24 1.28 14.66 0.77L14.66 0.77L14.66 0.77Q7.62-0.32 5.60-0.32L5.60-0.32L5.60-0.32Q3.58-0.32 2.75-0.22L2.75-0.22L2.75-0.22Q1.92-0.13 0.58 0L0.58 0L8.32-42.24L22.34-42.24L15.94-7.04L15.94-7.04Q16.77-6.91 17.54-6.91L17.54-6.91L19.14-6.91L19.14-6.91Q24.51-6.91 27.84-9.86ZM46.59 0L32.64 0L40.77-42.24L54.85-42.24L46.59 0ZM69.31 0L55.68 0L62.98-38.91L63.68-42.24L77.38-42.24L69.31 0ZM95.30-3.78L95.30-3.78L95.30-3.78Q93.57 1.28 86.91 1.28L86.91 1.28L86.91 1.28Q81.98 1.28 78.59-4.61L78.59-4.61L78.59-4.61Q75.14-10.50 74.50-20.10L74.50-20.10L74.50-20.10Q81.54-32.96 86.40-38.27L86.40-38.27L86.40-38.27Q91.07-43.33 95.94-43.33L95.94-43.33L95.94-43.33Q98.56-43.33 100.45-41.92L100.45-41.92L100.45-41.92Q102.34-40.51 102.78-38.27L102.78-38.27L102.78-38.27Q100.61-37.38 99.58-36.67L99.58-36.67L99.58-36.67Q97.02-34.75 93.57-30.46L93.57-30.46L87.74-23.49L87.74-23.49Q86.34-21.82 85.76-21.06L85.76-21.06L85.76-21.06Q86.72-15.68 89.60-10.37L89.60-10.37L89.60-10.37Q92.35-5.31 95.30-3.78ZM128.06-9.86L128.06-9.86L128.06-9.86Q129.28-8.32 129.28-5.82L129.28-5.82L129.28-5.82Q129.28-2.37 126.72-0.54L126.72-0.54L126.72-0.54Q124.16 1.28 120.13 1.28L120.13 1.28L120.13 1.28Q117.82 1.28 114.30 0.77L114.30 0.77L114.30 0.77Q107.39-0.32 105.28-0.32L105.28-0.32L105.28-0.32Q103.17-0.32 102.34-0.22L102.34-0.22L102.34-0.22Q101.50-0.13 100.16 0L100.16 0L108.03-42.24L135.62-42.24L135.62-42.24Q135.62-38.34 133.73-36.29L133.73-36.29L133.73-36.29Q131.84-34.24 128.13-34.24L128.13-34.24L128.13-34.24Q124.42-34.24 120.64-35.97L120.64-35.97L118.66-24.77L130.05-24.77L130.05-24.77Q130.05-21.38 128.38-19.49L128.38-19.49L128.38-19.49Q126.72-17.60 123.94-17.60L123.94-17.60L123.94-17.60Q121.15-17.60 119.42-18.24L119.42-18.24L119.42-18.24Q117.70-18.88 117.50-19.07L117.50-19.07L115.20-6.98L115.20-6.98Q116.74-6.78 119.62-6.78L119.62-6.78L119.62-6.78Q124.54-6.78 128.06-9.86ZM176.70-26.56L176.70-26.56L176.70-26.56Q176.70 0.70 147.14 0.70L147.14 0.70L147.14 0.70Q142.40 0.70 134.59-0.45L134.59-0.45L141.76-38.27L141.76-38.27Q142.27-40.83 142.59-42.30L142.59-42.30L142.59-42.30Q152.32-43.01 156.64-43.01L156.64-43.01L156.64-43.01Q160.96-43.01 164.93-42.11L164.93-42.11L164.93-42.11Q168.90-41.22 171.52-39.23L171.52-39.23L171.52-39.23Q176.70-35.33 176.70-26.56ZM163.52-28.93L163.52-28.93L163.52-28.93Q163.52-38.46 156.67-38.46L156.67-38.46L156.03-38.46L156.03-38.46Q155.71-38.46 155.39-38.40L155.39-38.40L148.80-4.03L148.80-4.03Q149.06-3.90 149.31-3.90L149.31-3.90L149.82-3.90L149.82-3.90Q152.19-3.90 154.66-5.38L154.66-5.38L154.66-5.38Q157.12-6.85 159.04-9.86L159.04-9.86L159.04-9.86Q163.52-16.83 163.52-28.93ZM193.22 0L179.26 0L187.39-42.24L201.47-42.24L193.22 0ZM209.47 0L202.43 0L210.11-42.24L223.87-42.24L233.86-13.18L239.17-42.24L246.27-42.18L238.46 0L223.81 0L214.59-27.97L209.47 0Z" fill="#ccc"></path></g></g><style>text {
  font-size: 64px;
  font-family: Arial Black;
  dominant-baseline: central;
  text-anchor: middle;
}</style></svg>